# xmcd
#
# Track frame offsets: 
#        150
#        20921
#        43797
#        61609
#        82324
#        103617
#        121309
#        136326
#        155778
#        175993
#        196676
#        215281
#        237762
#        260932
#
# Disc length: 3758 seconds
#
# Revision: 1
# Processed by: cddbd v1.5.2PL0 Copyright (c) Steve Scherf et al.
# Submitted via: ExactAudioCopyFreeDBPlugin 1.0
#
DISCID=ca0eac0e
DTITLE=明仔 - DTS51吉他心语
DYEAR=2010
DGENRE=DTS
TTITLE0=每一句说话
TTITLE1=卡萨布兰卡
TTITLE2=斯卡布罗集市
TTITLE3=我要走天涯
TTITLE4=雨中的恋人
TTITLE5=分分钟需要你
TTITLE6=但愿人长久
TTITLE7=童年时
TTITLE8=哪里的天空不下雨
TTITLE9=天堂泪
TTITLE10=寂静之声
TTITLE11=下雨天
TTITLE12=昨天
TTITLE13=天空之城
EXTD=
EXTT0=
EXTT1=
EXTT2=
EXTT3=
EXTT4=
EXTT5=
EXTT6=
EXTT7=
EXTT8=
EXTT9=
EXTT10=
EXTT11=
EXTT12=
EXTT13=
PLAYORDER=
